<svg width="31" height="32" viewBox="0 0 31 32" fill="none" xmlns="http://www.w3.org/2000/svg">
<path d="M14.686 4.25C12.2757 4.2502 9.91955 4.96512 7.91554 6.30437C5.91153 7.64361 4.34965 9.54703 3.4274 11.7739C2.50515 14.0008 2.26395 16.4512 2.7343 18.8152C3.20465 21.1792 4.36543 23.3506 6.06985 25.0549C7.77427 26.7591 9.94579 27.9197 12.3098 28.3899C14.6738 28.8601 17.1242 28.6187 19.351 27.6962C21.5778 26.7738 23.4811 25.2118 24.8202 23.2076C26.1593 21.2035 26.874 18.8473 26.874 16.437C26.8708 13.2055 25.5857 10.1073 23.3007 7.82229C21.0157 5.53729 17.9175 4.25318 14.686 4.25ZM19.374 17.374H9.99901C9.75566 17.3661 9.52495 17.2638 9.35562 17.0889C9.1863 16.9139 9.09163 16.68 9.09163 16.4365C9.09163 16.193 9.1863 15.9591 9.35562 15.7842C9.52495 15.6092 9.75566 15.5069 9.99901 15.499H19.373C19.6218 15.499 19.8604 15.5978 20.0363 15.7737C20.2122 15.9496 20.311 16.1882 20.311 16.437C20.311 16.6858 20.2122 16.9244 20.0363 17.1003C19.8604 17.2762 19.6218 17.375 19.373 17.375L19.374 17.374Z" fill="#341635"/>
</svg>
